PathFileType	4	(X/Y/Z)	C:\Users\Basilio\Documents\Thesis Gigler\squatting_fais\c3dfiles\054\SLS_front_pre1\markers_experimental.trc
DataRate	CameraRate	NumFrames	NumMarkers	Units	OrigDataRate	OrigDataStartFrame	OrigNumFrames
200.000000	200.000000	4	61	mm	200.000000	1174	1342
Frame#	Time	FHD			LBHD			RBHD			C7			T10			CLAV			LSHO			LUUPA			LMUPA			LDUPA			LLEP			LMEP			LRAD			LUL			LRFIN			RSHO			RUPA1			RMUPA			RDUPA			RLEP			RMEP			RRAD			RUL			RUFIN			LASI			RASI			USACR			LSACR			RSACR			LTHI1			LTHI2			LTHI3			LTHI4			LLFC			LMFC			LTIB1			LTIB2			LTIB3			LTIB4			LLMAL			LMMAL			LHEE			LMT1			LMT2			LMT5			RTHI			RTHI2			RTHI3			RTHI4			RLFC			RMFC			RTIB1			RTIB2			RTIB3			RTIB4			RLMAL			RMMAL			RHEE			RMT1			RMT2			RMT5			
		X1	Y1	Z1	X2	Y2	Z2	X3	Y3	Z3	X4	Y4	Z4	X5	Y5	Z5	X6	Y6	Z6	X7	Y7	Z7	X8	Y8	Z8	X9	Y9	Z9	X10	Y10	Z10	X11	Y11	Z11	X12	Y12	Z12	X13	Y13	Z13	X14	Y14	Z14	X15	Y15	Z15	X16	Y16	Z16	X17	Y17	Z17	X18	Y18	Z18	X19	Y19	Z19	X20	Y20	Z20	X21	Y21	Z21	X22	Y22	Z22	X23	Y23	Z23	X24	Y24	Z24	X25	Y25	Z25	X26	Y26	Z26	X27	Y27	Z27	X28	Y28	Z28	X29	Y29	Z29	X30	Y30	Z30	X31	Y31	Z31	X32	Y32	Z32	X33	Y33	Z33	X34	Y34	Z34	X35	Y35	Z35	X36	Y36	Z36	X37	Y37	Z37	X38	Y38	Z38	X39	Y39	Z39	X40	Y40	Z40	X41	Y41	Z41	X42	Y42	Z42	X43	Y43	Z43	X44	Y44	Z44	X45	Y45	Z45	X46	Y46	Z46	X47	Y47	Z47	X48	Y48	Z48	X49	Y49	Z49	X50	Y50	Z50	X51	Y51	Z51	X52	Y52	Z52	X53	Y53	Z53	X54	Y54	Z54	X55	Y55	Z55	X56	Y56	Z56	X57	Y57	Z57	X58	Y58	Z58	X59	Y59	Z59	X60	Y60	Z60	X61	Y61	Z61	

1175	5.87	-203.7396697998047	1790.365966796875	-1078.980224609375	-367.3682556152344	1743.293823242188	-1148.840698242188	-384.1827087402345	1743.768188476563	-1009.347839355469	-417.1266174316407	1568.181640625	-1067.087158203125	-435.4498901367189	1236.75146484375	-1069.337524414063	-270.7700805664063	1515.346435546875	-1077.61962890625	-349.7221679687501	1566.620361328125	-1227.105712890625	-211.4916534423829	1448.567016601563	-1364.213134765625	-177.1056671142578	1482.927124023438	-1353.880859375	-144.9363098144532	1440.005126953125	-1380.71240234375	-86.42427062988283	1442.819091796875	-1383.226440429688	-83.3126678466797	1376.228515625	-1340.5966796875	174.8106384277344	1460.640747070313	-1315.251586914063	185.5862426757813	1431.2099609375	-1386.600830078125	265.1185913085938	1479.8974609375	-1337.487915039063	-330.4829711914063	1563.244018554688	-923.495544433594	-178.5491638183594	1441.403686523438	-800.8896484375002	-143.0390930175782	1472.538696289063	-810.1951904296877	-110.6325149536133	1424.529907226563	-789.2268676757815	-66.2872772216797	1419.148315429688	-790.846130371094	-70.2150115966797	1364.401245117188	-844.5924072265627	196.1252899169922	1480.603637695313	-890.6477050781252	201.3857421875001	1434.41259765625	-825.1999511718752	273.8852233886719	1505.1552734375	-873.8363037109377	-239.2253723144532	1062.11865234375	-1173.324462890625	-246.0526275634766	1097.738037109375	-925.1250000000002	-434.285369873047	1147.453369140625	-1058.380981445313	-436.4226379394532	1112.764770507813	-1082.063598632813	-439.1137084960939	1118.406127929688	-1025.276123046875	-314.1527404785157	809.2919921875002	-1225.746704101563	-277.9357299804688	732.2817993164064	-1215.986572265625	-231.3446960449219	739.3403930664064	-1211.769409179688	-303.3691711425782	680.8330078125001	-1193.46240234375	-295.2569885253907	529.8463134765626	-1159.7255859375	-267.1517944335938	540.1874389648439	-1023.474975585938	-255.929183959961	370.9667663574219	-1088.245483398438	-304.8422546386719	319.1188354492188	-1139.641845703125	-265.2687072753907	318.8406982421876	-1115.792724609375	-276.6025085449219	246.6639862060547	-1072.012084960938	-339.6324462890626	112.7029724121094	-1097.84033203125	-309.2319030761719	135.2521057128907	-1008.045837402344	-408.3994750976564	104.9179916381836	-1037.620971679688	-198.9945220947266	55.27091217041017	-1017.24365234375	-189.8044891357422	55.18326568603517	-1066.1357421875	-242.3547058105469	40.67822265625001	-1117.4140625	-193.3101959228516	808.0601196289065	-837.115417480469	-134.0839538574219	777.0855712890627	-841.2608032226565	-105.8588409423828	791.3272094726565	-851.8919677734377	-124.8513946533203	694.4005126953126	-852.3312988281252	-107.2511596679688	605.0380859375001	-858.7468261718752	-68.98948669433595	622.3656005859376	-987.993347167969	-40.55999374389649	506.1133728027345	-867.9414672851565	-105.0326766967774	424.0820312500001	-843.1573486328127	-59.01172637939455	421.9136047363282	-852.0373535156252	-37.93582153320313	375.9630737304688	-878.6248168945315	-81.56878662109376	196.7873992919922	-871.7259521484377	-34.40361404418946	215.3085021972657	-952.6290283203127	-130.7055358886719	158.4512023925782	-938.9014892578127	91.21257781982423	148.3235321044922	-916.1565551757815	86.46120452880861	158.3863372802735	-868.8059692382815	32.67855072021485	138.7185211181641	-828.4785766601565	
1176	5.875	-203.8015136718751	1790.426635742188	-1079.061401367188	-367.4467773437501	1743.288208007813	-1148.943725585938	-384.2182006835939	1743.771362304688	-1009.406677246094	-417.1215820312501	1568.192626953125	-1067.160278320313	-435.4490356445314	1236.762451171875	-1069.412353515625	-270.7502441406251	1515.348266601563	-1077.6884765625	-349.7385559082032	1566.665161132813	-1227.214477539063	-211.6870574951172	1448.541015625	-1364.263427734375	-177.0649871826172	1482.888793945313	-1353.95703125	-144.9595031738282	1439.987426757813	-1380.780639648438	-86.47957611083986	1442.797485351563	-1383.276123046875	-83.34363555908205	1376.192016601563	-1340.659790039063	174.8433380126953	1460.536987304688	-1315.333251953125	185.4666290283203	1431.113525390625	-1386.68994140625	265.1458129882813	1479.7421875	-1337.618041992188	-330.4938964843751	1563.27392578125	-923.5925903320315	-178.5213470458985	1441.517211914063	-800.9717407226565	-142.9485473632813	1472.603271484375	-810.286560058594	-110.6127624511719	1424.599365234375	-789.2921142578127	-66.14404296875001	1419.266357421875	-791.0130615234377	-70.24770355224611	1364.57421875	-844.731872558594	196.0541076660157	1480.870727539063	-890.8444824218752	201.4351806640626	1434.743896484375	-825.3316650390627	273.9692993164063	1505.23193359375	-874.0557250976565	-239.2917480468751	1062.109130859375	-1173.394897460938	-245.9925384521485	1097.78955078125	-925.1819458007815	-434.3712463378907	1147.498168945313	-1058.41455078125	-436.5217895507814	1112.836181640625	-1082.08935546875	-439.1027832031251	1118.408813476563	-1025.280151367188	-314.2088317871094	809.2673339843752	-1225.744506835938	-278.0476989746094	732.2736206054689	-1215.971435546875	-231.4347686767579	739.3551635742189	-1211.793212890625	-303.4534912109376	680.8333129882814	-1193.484985351563	-295.4280700683594	529.8644409179689	-1159.7646484375	-267.2321166992188	540.2170410156251	-1023.52880859375	-255.9931945800782	370.9759826660157	-1088.346313476563	-304.8540039062501	319.1394653320313	-1139.698974609375	-265.5231018066407	318.9320373535157	-1115.771118164063	-276.6233215332032	246.5687713623047	-1072.078491210938	-339.5820312500001	112.7105255126953	-1097.862060546875	-309.2093505859376	135.2857208251953	-1008.057312011719	-408.3953552246095	104.8806381225586	-1037.609985351563	-199.0199279785157	55.26478195190431	-1017.252258300781	-189.79931640625	55.22448348999025	-1066.19677734375	-242.4201965332032	40.68745422363282	-1117.426879882813	-193.348861694336	808.0651855468752	-837.1684570312502	-134.0730895996094	777.1135253906252	-841.3513793945315	-105.8661346435547	791.2774658203127	-851.988220214844	-124.9002914428711	694.4103393554689	-852.4507446289065	-107.2972259521485	605.0329589843751	-858.8192138671877	-68.99915313720705	622.2809448242189	-988.1724853515627	-40.61704635620118	506.1045227050782	-868.0405883789065	-104.9640884399414	424.0285949707032	-843.230651855469	-58.9797821044922	421.9290771484376	-852.1294555664065	-37.89178848266602	375.9475097656251	-878.6702880859377	-81.49031829833986	196.7398681640626	-871.8276977539065	-34.34909439086915	215.2986602783204	-952.6931152343752	-130.5592193603516	158.4683227539063	-938.9100341796877	91.42427062988283	148.3787231445313	-916.360046386719	86.50962829589845	158.4295349121094	-868.9626464843752	32.95082092285157	138.8036041259766	-828.6223144531252	
1177	5.88	-203.8692474365235	1790.430541992188	-1079.13916015625	-367.4125671386719	1743.301025390625	-1149.04638671875	-384.3102111816407	1743.761840820313	-1009.482482910156	-417.0771484375001	1568.244018554688	-1067.307739257813	-435.5365600585939	1236.825561523438	-1069.383911132813	-270.8247375488282	1515.390258789063	-1077.795654296875	-349.6565246582032	1566.66650390625	-1227.305908203125	-211.5784912109376	1448.519775390625	-1364.34423828125	-177.012435913086	1482.847778320313	-1354.078979492188	-144.5736541748047	1439.7177734375	-1380.689575195313	-86.42281341552736	1442.7509765625	-1383.36376953125	-83.34934997558595	1376.14208984375	-1340.742065429688	174.9519805908203	1460.4853515625	-1315.405151367188	185.4776458740235	1431.011352539063	-1386.8603515625	265.3441772460938	1479.559326171875	-1337.738159179688	-330.4887695312501	1563.3115234375	-923.6751708984377	-178.4601440429688	1441.661865234375	-801.0210571289065	-142.9077758789063	1472.661010742188	-810.3596801757815	-110.5849990844727	1424.674072265625	-789.3230590820315	-66.07769012451173	1419.378540039063	-790.9998779296877	-69.72393798828126	1364.735595703125	-844.0928344726565	196.0065612792969	1481.077758789063	-890.9824829101565	201.4920806884766	1435.005126953125	-825.498474121094	274.0352478027344	1505.388671875	-874.1452636718752	-239.4312744140626	1062.084106445313	-1173.41845703125	-246.0258789062501	1097.756958007813	-925.2393798828127	-434.3828125000001	1147.513061523438	-1058.412963867188	-436.6422729492189	1112.865478515625	-1082.083251953125	-439.1050415039064	1118.445678710938	-1025.28271484375	-314.6264343261719	809.4050292968752	-1225.834716796875	-278.1210021972657	732.4126586914064	-1216.048461914063	-231.6464996337891	739.3893432617189	-1211.905395507813	-303.6693725585938	680.8685913085939	-1193.517944335938	-295.5380554199219	529.8569946289064	-1159.769653320313	-267.2867736816407	540.1912841796876	-1023.597534179688	-256.0605468750001	370.9654235839844	-1088.420043945313	-304.9609069824219	319.1817321777344	-1139.749877929688	-265.6034851074219	318.8988647460938	-1115.78125	-276.7018432617188	246.7298889160157	-1072.128540039063	-339.6410217285157	112.7328491210938	-1097.85791015625	-309.2236328125001	135.2829742431641	-1008.0673828125	-408.3820800781251	104.8867340087891	-1037.591552734375	-199.0145721435547	55.30675506591798	-1017.23974609375	-189.7140045166016	55.49197006225587	-1066.066284179688	-242.4340362548829	40.65112686157227	-1117.414916992188	-193.3734588623047	808.0740356445315	-837.1691894531252	-134.1257934570313	777.1513671875002	-841.4729614257815	-105.9202423095703	791.2991943359377	-852.0593872070315	-124.9368438720703	694.4061279296876	-852.5173339843752	-107.3581848144532	604.9744262695314	-858.9307861328127	-69.29280090332033	622.1848754882814	-988.2798461914065	-40.61604690551759	506.1034240722657	-868.1482543945315	-104.9358062744141	424.0254211425782	-843.308288574219	-58.97603607177736	421.8719787597657	-852.2130126953127	-37.90236282348634	375.9236145019532	-878.7855224609377	-81.40396118164064	196.7436065673829	-871.8777465820315	-34.3022689819336	215.3041076660157	-952.778991699219	-130.4655914306641	158.4017639160157	-938.9494628906252	91.6300735473633	148.6747436523438	-916.5809326171877	86.76033782958986	158.4162292480469	-869.1602172851565	33.19419860839844	138.8797607421875	-828.7861938476565	
1178	5.885	-203.8595123291016	1790.477416992188	-1079.232666015625	-367.5104370117188	1743.320678710938	-1149.151489257813	-384.2975158691407	1743.782104492188	-1009.572570800781	-417.0264892578126	1568.240966796875	-1067.407470703125	-435.4602355957032	1236.845092773438	-1069.421997070313	-270.7326049804688	1515.405029296875	-1077.828491210938	-349.6748046875001	1566.678833007813	-1227.380981445313	-211.5074157714844	1448.48876953125	-1364.523193359375	-176.9783935546875	1482.861572265625	-1354.18212890625	-144.4769897460938	1439.67919921875	-1380.764770507813	-86.42588043212892	1442.735717773438	-1383.434692382813	-83.35579681396486	1376.103759765625	-1340.821655273438	174.8936157226563	1460.391479492188	-1315.552124023438	185.5667572021485	1430.906127929688	-1386.973388671875	265.3401794433594	1479.422119140625	-1337.878662109375	-330.4798278808594	1563.334228515625	-923.7896118164065	-178.4516296386719	1441.731567382813	-801.109313964844	-142.8494110107422	1472.734375	-810.417907714844	-110.5252990722657	1424.709716796875	-789.3879394531252	-66.05792236328126	1419.485107421875	-790.9855957031252	-69.59728240966798	1364.839477539063	-844.1383056640627	195.986068725586	1481.26708984375	-891.141296386719	201.4757843017579	1435.205200195313	-825.7041015625002	273.9284667968751	1505.644653320313	-874.391540527344	-239.5463104248047	1062.057861328125	-1173.468627929688	-246.0095214843751	1097.771728515625	-925.264831542969	-434.1208496093751	1147.552124023438	-1058.536254882813	-436.7836303710939	1112.924194335938	-1082.106689453125	-439.1444396972657	1118.473022460938	-1025.326171875	-313.9953002929688	809.3677368164065	-1226.024536132813	-278.2501831054688	732.4172973632814	-1216.09423828125	-231.8359985351563	739.4086914062501	-1211.942260742188	-303.8146667480469	680.8829956054689	-1193.534912109375	-295.1435546875001	529.7149047851564	-1159.90478515625	-267.3793640136719	540.1873168945314	-1023.678100585938	-256.1948547363282	370.9770812988282	-1088.566162109375	-305.0230712890626	319.2266540527344	-1139.76220703125	-265.9788818359376	318.8928527832032	-1115.840942382813	-276.7948913574219	246.7159729003907	-1072.248901367188	-339.6044616699219	112.6850662231446	-1097.931640625	-309.2104187011719	135.2718048095703	-1008.117919921875	-408.4510498046876	104.8987503051758	-1037.560668945313	-198.9930267333985	55.30982208251955	-1017.260314941406	-189.7705230712891	55.37296295166017	-1066.084350585938	-242.4426269531251	40.63525009155274	-1117.4521484375	-193.3901824951172	808.0833129882815	-837.267517089844	-134.176498413086	777.1065673828127	-841.635437011719	-105.9088287353516	791.294128417969	-852.0938720703127	-124.9279403686524	694.4111938476564	-852.5928344726565	-107.4125213623047	604.9961547851564	-858.997497558594	-68.67382812500001	622.0123291015626	-988.4934692382815	-40.63521575927735	506.1000366210939	-868.2261962890627	-104.8917541503907	424.0073852539064	-843.3421020507815	-58.96101379394533	421.873504638672	-852.2867431640627	-37.78008270263673	375.9223327636719	-878.9071044921877	-81.20494842529298	196.7288818359376	-871.9602661132815	-34.23498535156251	215.2807769775391	-952.8638305664065	-130.3874969482422	158.3585357666016	-938.918151855469	91.7237014770508	148.7564392089844	-916.8227539062502	86.90378570556642	158.4473876953125	-869.2851562500002	33.40686416625977	138.8953552246094	-828.9254150390627	
